<?xml version="1.0" encoding="UTF-8"?>
<svg width="800px" height="800px" viewBox="0 0 24 24" version="1.1" xmlns="http://www.w3.org/2000/svg">
    <title>论文修改</title>
    <g stroke="none" stroke-width="1" fill="none" fill-rule="evenodd">
        <path d="M15.7279221,2.28207344 L21.7279221,8.28207344 L21.9497475,8.58578644 L22,8.91421356 L22,20 C22,21.1045695 21.1045695,22 20,22 L4,22 C2.8954305,22 2,21.1045695 2,20 L2,4 C2,2.8954305 2.8954305,2 4,2 L15.0857864,2 L15.4142136,2.05025253 L15.7279221,2.28207344 Z M14.5857864,4 L4,4 L4,20 L20,20 L20,9.41421356 L14.5857864,4 Z M8,9 L16,9 L16,11 L8,11 L8,9 Z M8,13 L16,13 L16,15 L8,15 L8,13 Z" fill="#4F46E5"/>
    </g>
</svg> 